<mxfile host="app.diagrams.net" modified="2023-09-22T03:57:45.662Z" agent="Mozilla/5.0 (Windows NT 10.0; Win64; x64) AppleWebKit/537.36 (KHTML, like Gecko) Chrome/117.0.0.0 Safari/537.36 Edg/117.0.2045.36" etag="pJd-SWrjAQWH5OX_wPd8" version="21.8.0" type="github">
  <diagram name="Page-1" id="lBZEjL-7u2HndfBsqRj2">
    <mxGraphModel dx="2539" dy="841" grid="1" gridSize="10" guides="1" tooltips="1" connect="1" arrows="1" fold="1" page="1" pageScale="1" pageWidth="827" pageHeight="1169" background="none" math="0" shadow="0">
      <root>
        <mxCell id="0" />
        <mxCell id="1" parent="0" />
        <mxCell id="OFiAfCi6nQqzRcwtdBv--7" style="edgeStyle=orthogonalEdgeStyle;rounded=0;orthogonalLoop=1;jettySize=auto;html=1;exitX=0.5;exitY=1;exitDx=0;exitDy=0;" parent="1" edge="1">
          <mxGeometry relative="1" as="geometry">
            <mxPoint x="-380" y="160" as="targetPoint" />
            <mxPoint x="-380" y="80" as="sourcePoint" />
          </mxGeometry>
        </mxCell>
        <mxCell id="oadoQURwM-oeFqKWCIur-5" style="edgeStyle=orthogonalEdgeStyle;rounded=0;orthogonalLoop=1;jettySize=auto;html=1;entryX=0.5;entryY=0;entryDx=0;entryDy=0;" edge="1" parent="1" target="oadoQURwM-oeFqKWCIur-2">
          <mxGeometry relative="1" as="geometry">
            <mxPoint x="-380" y="220" as="sourcePoint" />
          </mxGeometry>
        </mxCell>
        <mxCell id="oadoQURwM-oeFqKWCIur-3" style="edgeStyle=orthogonalEdgeStyle;rounded=0;orthogonalLoop=1;jettySize=auto;html=1;entryX=0.5;entryY=0;entryDx=0;entryDy=0;" edge="1" parent="1" source="oadoQURwM-oeFqKWCIur-2" target="oadoQURwM-oeFqKWCIur-22">
          <mxGeometry relative="1" as="geometry">
            <mxPoint x="-380" y="480" as="targetPoint" />
          </mxGeometry>
        </mxCell>
        <mxCell id="oadoQURwM-oeFqKWCIur-6" style="edgeStyle=orthogonalEdgeStyle;rounded=0;orthogonalLoop=1;jettySize=auto;html=1;entryX=0;entryY=0.5;entryDx=0;entryDy=0;" edge="1" parent="1" source="oadoQURwM-oeFqKWCIur-2">
          <mxGeometry relative="1" as="geometry">
            <mxPoint x="-160" y="340" as="targetPoint" />
          </mxGeometry>
        </mxCell>
        <mxCell id="oadoQURwM-oeFqKWCIur-2" value="sửa đơn ?" style="rhombus;whiteSpace=wrap;html=1;" vertex="1" parent="1">
          <mxGeometry x="-450" y="300" width="140" height="80" as="geometry" />
        </mxCell>
        <mxCell id="oadoQURwM-oeFqKWCIur-4" value="Không" style="text;strokeColor=none;align=center;fillColor=none;html=1;verticalAlign=middle;whiteSpace=wrap;rounded=0;" vertex="1" parent="1">
          <mxGeometry x="-380" y="420" width="60" height="30" as="geometry" />
        </mxCell>
        <mxCell id="oadoQURwM-oeFqKWCIur-7" value="Có" style="text;strokeColor=none;align=center;fillColor=none;html=1;verticalAlign=middle;whiteSpace=wrap;rounded=0;" vertex="1" parent="1">
          <mxGeometry x="-270" y="310" width="60" height="30" as="geometry" />
        </mxCell>
        <mxCell id="oadoQURwM-oeFqKWCIur-13" style="edgeStyle=orthogonalEdgeStyle;rounded=0;orthogonalLoop=1;jettySize=auto;html=1;entryX=1;entryY=0.5;entryDx=0;entryDy=0;" edge="1" parent="1" target="oadoQURwM-oeFqKWCIur-22">
          <mxGeometry relative="1" as="geometry">
            <mxPoint x="-320" y="526" as="targetPoint" />
            <mxPoint x="-89.9333333333334" y="379.9976190476191" as="sourcePoint" />
            <Array as="points">
              <mxPoint x="-90" y="500" />
            </Array>
          </mxGeometry>
        </mxCell>
        <mxCell id="oadoQURwM-oeFqKWCIur-17" style="edgeStyle=orthogonalEdgeStyle;rounded=0;orthogonalLoop=1;jettySize=auto;html=1;" edge="1" parent="1" source="oadoQURwM-oeFqKWCIur-9">
          <mxGeometry relative="1" as="geometry">
            <mxPoint x="80" y="340" as="targetPoint" />
          </mxGeometry>
        </mxCell>
        <mxCell id="oadoQURwM-oeFqKWCIur-9" value="Đơn đã duyệt chưa ?" style="rhombus;whiteSpace=wrap;html=1;" vertex="1" parent="1">
          <mxGeometry x="-160" y="300" width="140" height="80" as="geometry" />
        </mxCell>
        <mxCell id="oadoQURwM-oeFqKWCIur-16" value="đã duyệt" style="text;strokeColor=none;align=center;fillColor=none;html=1;verticalAlign=middle;whiteSpace=wrap;rounded=0;" vertex="1" parent="1">
          <mxGeometry x="-240" y="490" width="110" height="40" as="geometry" />
        </mxCell>
        <mxCell id="oadoQURwM-oeFqKWCIur-18" value="Chưa" style="text;strokeColor=none;align=center;fillColor=none;html=1;verticalAlign=middle;whiteSpace=wrap;rounded=0;" vertex="1" parent="1">
          <mxGeometry x="-10" y="310" width="60" height="30" as="geometry" />
        </mxCell>
        <mxCell id="oadoQURwM-oeFqKWCIur-25" style="edgeStyle=none;curved=1;rounded=0;orthogonalLoop=1;jettySize=auto;html=1;fontSize=12;startSize=8;endSize=8;" edge="1" parent="1" source="oadoQURwM-oeFqKWCIur-20">
          <mxGeometry relative="1" as="geometry">
            <mxPoint x="350" y="350" as="targetPoint" />
          </mxGeometry>
        </mxCell>
        <mxCell id="oadoQURwM-oeFqKWCIur-20" value="Hiển thị chi tiết đơn &lt;br&gt;Găm chi tiết đơn vào bảng găm tồn" style="rounded=0;whiteSpace=wrap;html=1;" vertex="1" parent="1">
          <mxGeometry x="80" y="310" width="160" height="80" as="geometry" />
        </mxCell>
        <mxCell id="oadoQURwM-oeFqKWCIur-21" value="Bắt đầu" style="rounded=1;whiteSpace=wrap;html=1;fontSize=16;" vertex="1" parent="1">
          <mxGeometry x="-440" y="20" width="120" height="60" as="geometry" />
        </mxCell>
        <mxCell id="oadoQURwM-oeFqKWCIur-22" value="Kết thúc" style="rounded=1;whiteSpace=wrap;html=1;fontSize=16;" vertex="1" parent="1">
          <mxGeometry x="-450" y="470" width="120" height="60" as="geometry" />
        </mxCell>
        <mxCell id="oadoQURwM-oeFqKWCIur-23" value="Bấm vào xem đơn" style="shape=parallelogram;perimeter=parallelogramPerimeter;whiteSpace=wrap;html=1;fixedSize=1;fontSize=16;" vertex="1" parent="1">
          <mxGeometry x="-460" y="160" width="170" height="70" as="geometry" />
        </mxCell>
        <mxCell id="oadoQURwM-oeFqKWCIur-28" value="" style="edgeStyle=none;curved=1;rounded=0;orthogonalLoop=1;jettySize=auto;html=1;fontSize=12;startSize=8;endSize=8;" edge="1" parent="1" source="oadoQURwM-oeFqKWCIur-26" target="oadoQURwM-oeFqKWCIur-27">
          <mxGeometry relative="1" as="geometry" />
        </mxCell>
        <mxCell id="oadoQURwM-oeFqKWCIur-33" value="" style="edgeStyle=none;curved=1;rounded=0;orthogonalLoop=1;jettySize=auto;html=1;fontSize=12;startSize=8;endSize=8;" edge="1" parent="1" source="oadoQURwM-oeFqKWCIur-26">
          <mxGeometry relative="1" as="geometry">
            <mxPoint x="460" y="570" as="targetPoint" />
          </mxGeometry>
        </mxCell>
        <mxCell id="oadoQURwM-oeFqKWCIur-26" value="Sửa danh sách vật tư" style="rhombus;whiteSpace=wrap;html=1;fontSize=16;" vertex="1" parent="1">
          <mxGeometry x="350" y="300" width="220" height="100" as="geometry" />
        </mxCell>
        <mxCell id="oadoQURwM-oeFqKWCIur-27" value="Kết thúc" style="whiteSpace=wrap;html=1;fontSize=16;" vertex="1" parent="1">
          <mxGeometry x="400" y="170" width="120" height="60" as="geometry" />
        </mxCell>
        <mxCell id="oadoQURwM-oeFqKWCIur-29" value="Xoá hết" style="text;strokeColor=none;align=center;fillColor=none;html=1;verticalAlign=middle;whiteSpace=wrap;rounded=0;fontSize=16;" vertex="1" parent="1">
          <mxGeometry x="400" y="250" width="60" height="30" as="geometry" />
        </mxCell>
        <mxCell id="oadoQURwM-oeFqKWCIur-32" value="Điều chỉnh số lượng trên dòng vật tư, thay đổi vật tư" style="text;strokeColor=none;align=center;fillColor=none;html=1;verticalAlign=middle;whiteSpace=wrap;rounded=0;fontSize=16;" vertex="1" parent="1">
          <mxGeometry x="460" y="440" width="200" height="50" as="geometry" />
        </mxCell>
        <mxCell id="oadoQURwM-oeFqKWCIur-34" value="Kiểm tra đơn hàng hiện tại không có đơn vượt tồn thì insert bảng&amp;nbsp;găm tồn chính" style="rounded=0;whiteSpace=wrap;html=1;fontSize=16;" vertex="1" parent="1">
          <mxGeometry x="360" y="570" width="220" height="60" as="geometry" />
        </mxCell>
      </root>
    </mxGraphModel>
  </diagram>
</mxfile>
